<mxfile host="65bd71144e">
    <diagram id="_gYd_yRaZROrODqXN37u" name="Page-1">
        <mxGraphModel dx="1680" dy="846" grid="1" gridSize="10" guides="1" tooltips="1" connect="1" arrows="1" fold="1" page="1" pageScale="1" pageWidth="827" pageHeight="1169" math="0" shadow="0">
            <root>
                <mxCell id="0"/>
                <mxCell id="1" parent="0"/>
                <mxCell id="2" value="" style="sketch=0;html=1;aspect=fixed;strokeColor=none;shadow=0;align=center;verticalAlign=top;fillColor=#3B8DF1;shape=mxgraph.gcp2.view_list;rotation=-15;" vertex="1" parent="1">
                    <mxGeometry x="240" y="190" width="81" height="100" as="geometry"/>
                </mxCell>
                <mxCell id="3" value="set_id" style="ellipse;shape=cloud;whiteSpace=wrap;html=1;" vertex="1" parent="1">
                    <mxGeometry x="10" y="150" width="120" height="80" as="geometry"/>
                </mxCell>
                <mxCell id="4" value="catalog_num" style="ellipse;shape=cloud;whiteSpace=wrap;html=1;" vertex="1" parent="1">
                    <mxGeometry x="110" y="80" width="120" height="80" as="geometry"/>
                </mxCell>
                <mxCell id="6" value="start price" style="ellipse;shape=cloud;whiteSpace=wrap;html=1;" vertex="1" parent="1">
                    <mxGeometry x="370" y="120" width="120" height="80" as="geometry"/>
                </mxCell>
                <mxCell id="7" value="highest bid" style="ellipse;shape=cloud;whiteSpace=wrap;html=1;" vertex="1" parent="1">
                    <mxGeometry x="430" y="220" width="120" height="80" as="geometry"/>
                </mxCell>
                <mxCell id="9" value="remaining auction time" style="ellipse;shape=cloud;whiteSpace=wrap;html=1;" vertex="1" parent="1">
                    <mxGeometry x="250" y="70" width="120" height="80" as="geometry"/>
                </mxCell>
                <mxCell id="11" value="" style="shape=image;html=1;verticalLabelPosition=bottom;verticalAlign=top;imageAspect=1;aspect=fixed;image=img/clipart/Gear_128x128.png" vertex="1" parent="1">
                    <mxGeometry x="620" y="660" width="52" height="61" as="geometry"/>
                </mxCell>
                <mxCell id="12" value="product_id" style="ellipse;shape=cloud;whiteSpace=wrap;html=1;" vertex="1" parent="1">
                    <mxGeometry x="380" y="590" width="120" height="80" as="geometry"/>
                </mxCell>
                <mxCell id="13" value="prod_name" style="ellipse;shape=cloud;whiteSpace=wrap;html=1;" vertex="1" parent="1">
                    <mxGeometry x="480" y="520" width="120" height="80" as="geometry"/>
                </mxCell>
                <mxCell id="14" value="description" style="ellipse;shape=cloud;whiteSpace=wrap;html=1;" vertex="1" parent="1">
                    <mxGeometry x="610" y="480" width="120" height="80" as="geometry"/>
                </mxCell>
                <mxCell id="15" value="photo" style="ellipse;shape=cloud;whiteSpace=wrap;html=1;" vertex="1" parent="1">
                    <mxGeometry x="740" y="560" width="120" height="80" as="geometry"/>
                </mxCell>
                <mxCell id="19" value="" style="sketch=0;aspect=fixed;html=1;points=[];align=center;image;fontSize=12;image=img/lib/mscae/Person.svg;rotation=5;" vertex="1" parent="1">
                    <mxGeometry x="50" y="670" width="60" height="81.08" as="geometry"/>
                </mxCell>
                <mxCell id="21" value="costumer_id" style="ellipse;shape=cloud;whiteSpace=wrap;html=1;" vertex="1" parent="1">
                    <mxGeometry x="-159" y="630" width="120" height="80" as="geometry"/>
                </mxCell>
                <mxCell id="22" value="fk_set_id" style="ellipse;shape=cloud;whiteSpace=wrap;html=1;" vertex="1" parent="1">
                    <mxGeometry x="-59" y="560" width="120" height="80" as="geometry"/>
                </mxCell>
                <mxCell id="23" value="amount" style="ellipse;shape=cloud;whiteSpace=wrap;html=1;" vertex="1" parent="1">
                    <mxGeometry x="71" y="520" width="120" height="80" as="geometry"/>
                </mxCell>
                <mxCell id="24" value="date" style="ellipse;shape=cloud;whiteSpace=wrap;html=1;" vertex="1" parent="1">
                    <mxGeometry x="201" y="600" width="120" height="80" as="geometry"/>
                </mxCell>
                <mxCell id="25" value="time" style="ellipse;shape=cloud;whiteSpace=wrap;html=1;" vertex="1" parent="1">
                    <mxGeometry x="201" y="710" width="120" height="80" as="geometry"/>
                </mxCell>
                <mxCell id="26" value="password" style="ellipse;shape=cloud;whiteSpace=wrap;html=1;" vertex="1" parent="1">
                    <mxGeometry x="71" y="800" width="120" height="80" as="geometry"/>
                </mxCell>
                <mxCell id="27" value="name" style="ellipse;shape=cloud;whiteSpace=wrap;html=1;" vertex="1" parent="1">
                    <mxGeometry x="-100" y="810" width="120" height="80" as="geometry"/>
                </mxCell>
                <mxCell id="28" value="email" style="ellipse;shape=cloud;whiteSpace=wrap;html=1;" vertex="1" parent="1">
                    <mxGeometry x="-180" y="721" width="120" height="80" as="geometry"/>
                </mxCell>
            </root>
        </mxGraphModel>
    </diagram>
    <diagram id="7FCDDahbAtkubZQX5iFU" name="Page-2">
        <mxGraphModel dx="1680" dy="846" grid="1" gridSize="10" guides="1" tooltips="1" connect="1" arrows="1" fold="1" page="1" pageScale="1" pageWidth="827" pageHeight="1169" math="0" shadow="0">
            <root>
                <mxCell id="ca0Z7T8of8gmfiPiTYou-0"/>
                <mxCell id="ca0Z7T8of8gmfiPiTYou-1" parent="ca0Z7T8of8gmfiPiTYou-0"/>
                <mxCell id="jxNRX1WY2ZKDCiM9UZeG-5" style="edgeStyle=none;html=1;exitX=0.25;exitY=1;exitDx=0;exitDy=0;entryX=1;entryY=0;entryDx=0;entryDy=0;" edge="1" parent="ca0Z7T8of8gmfiPiTYou-1" source="ca0Z7T8of8gmfiPiTYou-2" target="goD8COI7fvtztgVObVlK-0">
                    <mxGeometry relative="1" as="geometry"/>
                </mxCell>
                <mxCell id="jxNRX1WY2ZKDCiM9UZeG-6" style="edgeStyle=none;html=1;exitX=0;exitY=0.75;exitDx=0;exitDy=0;entryX=1;entryY=0.5;entryDx=0;entryDy=0;" edge="1" parent="ca0Z7T8of8gmfiPiTYou-1" source="ca0Z7T8of8gmfiPiTYou-2" target="goD8COI7fvtztgVObVlK-1">
                    <mxGeometry relative="1" as="geometry"/>
                </mxCell>
                <mxCell id="jxNRX1WY2ZKDCiM9UZeG-7" style="edgeStyle=none;html=1;exitX=0;exitY=0.25;exitDx=0;exitDy=0;entryX=1;entryY=1;entryDx=0;entryDy=0;" edge="1" parent="ca0Z7T8of8gmfiPiTYou-1" source="ca0Z7T8of8gmfiPiTYou-2" target="goD8COI7fvtztgVObVlK-4">
                    <mxGeometry relative="1" as="geometry"/>
                </mxCell>
                <mxCell id="jxNRX1WY2ZKDCiM9UZeG-8" style="edgeStyle=none;html=1;exitX=0.25;exitY=0;exitDx=0;exitDy=0;entryX=0.5;entryY=1;entryDx=0;entryDy=0;" edge="1" parent="ca0Z7T8of8gmfiPiTYou-1" source="ca0Z7T8of8gmfiPiTYou-2" target="goD8COI7fvtztgVObVlK-2">
                    <mxGeometry relative="1" as="geometry"/>
                </mxCell>
                <mxCell id="jxNRX1WY2ZKDCiM9UZeG-11" style="edgeStyle=none;html=1;exitX=1;exitY=0.25;exitDx=0;exitDy=0;entryX=0;entryY=0.5;entryDx=0;entryDy=0;" edge="1" parent="ca0Z7T8of8gmfiPiTYou-1" source="ca0Z7T8of8gmfiPiTYou-2" target="EaMDmju6QmwKnn0wwo6J-0">
                    <mxGeometry relative="1" as="geometry"/>
                </mxCell>
                <mxCell id="jxNRX1WY2ZKDCiM9UZeG-13" style="edgeStyle=none;html=1;exitX=1;exitY=0.75;exitDx=0;exitDy=0;entryX=0;entryY=0.5;entryDx=0;entryDy=0;" edge="1" parent="ca0Z7T8of8gmfiPiTYou-1" source="ca0Z7T8of8gmfiPiTYou-2" target="EaMDmju6QmwKnn0wwo6J-1">
                    <mxGeometry relative="1" as="geometry"/>
                </mxCell>
                <mxCell id="jxNRX1WY2ZKDCiM9UZeG-14" style="edgeStyle=none;html=1;exitX=0.75;exitY=1;exitDx=0;exitDy=0;" edge="1" parent="ca0Z7T8of8gmfiPiTYou-1" source="ca0Z7T8of8gmfiPiTYou-2" target="9DCI0XBkv5CSsvKXZWBZ-0">
                    <mxGeometry relative="1" as="geometry"/>
                </mxCell>
                <mxCell id="jxNRX1WY2ZKDCiM9UZeG-22" style="edgeStyle=none;html=1;exitX=1;exitY=0;exitDx=0;exitDy=0;endArrow=ERmany;endFill=0;" edge="1" parent="ca0Z7T8of8gmfiPiTYou-1" source="ca0Z7T8of8gmfiPiTYou-2" target="jxNRX1WY2ZKDCiM9UZeG-21">
                    <mxGeometry relative="1" as="geometry"/>
                </mxCell>
                <mxCell id="ca0Z7T8of8gmfiPiTYou-2" value="customer" style="rounded=0;whiteSpace=wrap;html=1;" vertex="1" parent="ca0Z7T8of8gmfiPiTYou-1">
                    <mxGeometry x="20" y="475" width="120" height="60" as="geometry"/>
                </mxCell>
                <mxCell id="jxNRX1WY2ZKDCiM9UZeG-15" style="edgeStyle=none;html=1;exitX=0.75;exitY=0;exitDx=0;exitDy=0;" edge="1" parent="ca0Z7T8of8gmfiPiTYou-1" source="ca0Z7T8of8gmfiPiTYou-3" target="goD8COI7fvtztgVObVlK-8">
                    <mxGeometry relative="1" as="geometry"/>
                </mxCell>
                <mxCell id="jxNRX1WY2ZKDCiM9UZeG-17" style="edgeStyle=none;html=1;exitX=0;exitY=0.25;exitDx=0;exitDy=0;entryX=1;entryY=0.5;entryDx=0;entryDy=0;" edge="1" parent="ca0Z7T8of8gmfiPiTYou-1" source="ca0Z7T8of8gmfiPiTYou-3" target="goD8COI7fvtztgVObVlK-9">
                    <mxGeometry relative="1" as="geometry"/>
                </mxCell>
                <mxCell id="jxNRX1WY2ZKDCiM9UZeG-18" style="edgeStyle=none;html=1;exitX=0;exitY=0.75;exitDx=0;exitDy=0;entryX=1;entryY=0.5;entryDx=0;entryDy=0;" edge="1" parent="ca0Z7T8of8gmfiPiTYou-1" source="ca0Z7T8of8gmfiPiTYou-3" target="goD8COI7fvtztgVObVlK-6">
                    <mxGeometry relative="1" as="geometry"/>
                </mxCell>
                <mxCell id="jxNRX1WY2ZKDCiM9UZeG-19" style="edgeStyle=none;html=1;exitX=0.25;exitY=1;exitDx=0;exitDy=0;entryX=1;entryY=0;entryDx=0;entryDy=0;" edge="1" parent="ca0Z7T8of8gmfiPiTYou-1" source="ca0Z7T8of8gmfiPiTYou-3" target="goD8COI7fvtztgVObVlK-5">
                    <mxGeometry relative="1" as="geometry"/>
                </mxCell>
                <mxCell id="jxNRX1WY2ZKDCiM9UZeG-24" style="edgeStyle=none;html=1;exitX=0;exitY=0;exitDx=0;exitDy=0;entryX=0.5;entryY=1;entryDx=0;entryDy=0;endArrow=ERone;endFill=0;" edge="1" parent="ca0Z7T8of8gmfiPiTYou-1" source="ca0Z7T8of8gmfiPiTYou-3" target="jxNRX1WY2ZKDCiM9UZeG-20">
                    <mxGeometry relative="1" as="geometry"/>
                </mxCell>
                <mxCell id="ca0Z7T8of8gmfiPiTYou-3" value="product" style="rounded=0;whiteSpace=wrap;html=1;" vertex="1" parent="ca0Z7T8of8gmfiPiTYou-1">
                    <mxGeometry x="740" y="425" width="120" height="60" as="geometry"/>
                </mxCell>
                <mxCell id="jxNRX1WY2ZKDCiM9UZeG-0" style="edgeStyle=none;html=1;exitX=0;exitY=1;exitDx=0;exitDy=0;entryX=1;entryY=0;entryDx=0;entryDy=0;" edge="1" parent="ca0Z7T8of8gmfiPiTYou-1" source="ca0Z7T8of8gmfiPiTYou-4" target="c94ElEuDBeeR87De8wlx-1">
                    <mxGeometry relative="1" as="geometry"/>
                </mxCell>
                <mxCell id="jxNRX1WY2ZKDCiM9UZeG-1" style="edgeStyle=none;html=1;exitX=0;exitY=0.5;exitDx=0;exitDy=0;entryX=1;entryY=0.5;entryDx=0;entryDy=0;" edge="1" parent="ca0Z7T8of8gmfiPiTYou-1" source="ca0Z7T8of8gmfiPiTYou-4" target="c94ElEuDBeeR87De8wlx-2">
                    <mxGeometry relative="1" as="geometry"/>
                </mxCell>
                <mxCell id="jxNRX1WY2ZKDCiM9UZeG-2" style="edgeStyle=none;html=1;exitX=0;exitY=0;exitDx=0;exitDy=0;entryX=1;entryY=1;entryDx=0;entryDy=0;" edge="1" parent="ca0Z7T8of8gmfiPiTYou-1" source="ca0Z7T8of8gmfiPiTYou-4" target="c94ElEuDBeeR87De8wlx-5">
                    <mxGeometry relative="1" as="geometry"/>
                </mxCell>
                <mxCell id="jxNRX1WY2ZKDCiM9UZeG-3" style="edgeStyle=none;html=1;exitX=0.5;exitY=0;exitDx=0;exitDy=0;entryX=1;entryY=1;entryDx=0;entryDy=0;" edge="1" parent="ca0Z7T8of8gmfiPiTYou-1" source="ca0Z7T8of8gmfiPiTYou-4" target="c94ElEuDBeeR87De8wlx-3">
                    <mxGeometry relative="1" as="geometry"/>
                </mxCell>
                <mxCell id="jxNRX1WY2ZKDCiM9UZeG-4" style="edgeStyle=none;html=1;exitX=1;exitY=0;exitDx=0;exitDy=0;entryX=0.5;entryY=1;entryDx=0;entryDy=0;" edge="1" parent="ca0Z7T8of8gmfiPiTYou-1" source="ca0Z7T8of8gmfiPiTYou-4" target="c94ElEuDBeeR87De8wlx-4">
                    <mxGeometry relative="1" as="geometry"/>
                </mxCell>
                <mxCell id="ca0Z7T8of8gmfiPiTYou-4" value="set" style="rounded=0;whiteSpace=wrap;html=1;" vertex="1" parent="ca0Z7T8of8gmfiPiTYou-1">
                    <mxGeometry x="360" y="130" width="120" height="60" as="geometry"/>
                </mxCell>
                <mxCell id="c94ElEuDBeeR87De8wlx-1" value="set_id" style="ellipse;whiteSpace=wrap;html=1;" vertex="1" parent="ca0Z7T8of8gmfiPiTYou-1">
                    <mxGeometry x="230" y="210" width="110" height="50" as="geometry"/>
                </mxCell>
                <mxCell id="c94ElEuDBeeR87De8wlx-2" value="catalog_num" style="ellipse;whiteSpace=wrap;html=1;" vertex="1" parent="ca0Z7T8of8gmfiPiTYou-1">
                    <mxGeometry x="140" y="135" width="110" height="50" as="geometry"/>
                </mxCell>
                <mxCell id="c94ElEuDBeeR87De8wlx-3" value="start_price" style="ellipse;whiteSpace=wrap;html=1;" vertex="1" parent="ca0Z7T8of8gmfiPiTYou-1">
                    <mxGeometry x="270" y="10" width="110" height="50" as="geometry"/>
                </mxCell>
                <mxCell id="c94ElEuDBeeR87De8wlx-4" value="highest_bid" style="ellipse;whiteSpace=wrap;html=1;" vertex="1" parent="ca0Z7T8of8gmfiPiTYou-1">
                    <mxGeometry x="414" y="10" width="110" height="50" as="geometry"/>
                </mxCell>
                <mxCell id="c94ElEuDBeeR87De8wlx-5" value="remaining_time" style="ellipse;whiteSpace=wrap;html=1;" vertex="1" parent="ca0Z7T8of8gmfiPiTYou-1">
                    <mxGeometry x="160" y="60" width="110" height="50" as="geometry"/>
                </mxCell>
                <mxCell id="goD8COI7fvtztgVObVlK-0" value="customer_id" style="ellipse;whiteSpace=wrap;html=1;" vertex="1" parent="ca0Z7T8of8gmfiPiTYou-1">
                    <mxGeometry x="-70" y="580" width="110" height="50" as="geometry"/>
                </mxCell>
                <mxCell id="goD8COI7fvtztgVObVlK-1" value="amount" style="ellipse;whiteSpace=wrap;html=1;" vertex="1" parent="ca0Z7T8of8gmfiPiTYou-1">
                    <mxGeometry x="-160" y="505" width="110" height="50" as="geometry"/>
                </mxCell>
                <mxCell id="goD8COI7fvtztgVObVlK-2" value="time" style="ellipse;whiteSpace=wrap;html=1;" vertex="1" parent="ca0Z7T8of8gmfiPiTYou-1">
                    <mxGeometry x="-30" y="380" width="110" height="50" as="geometry"/>
                </mxCell>
                <mxCell id="goD8COI7fvtztgVObVlK-4" value="date" style="ellipse;whiteSpace=wrap;html=1;" vertex="1" parent="ca0Z7T8of8gmfiPiTYou-1">
                    <mxGeometry x="-140" y="430" width="110" height="50" as="geometry"/>
                </mxCell>
                <mxCell id="goD8COI7fvtztgVObVlK-5" value="product_id" style="ellipse;whiteSpace=wrap;html=1;" vertex="1" parent="ca0Z7T8of8gmfiPiTYou-1">
                    <mxGeometry x="630" y="530" width="110" height="50" as="geometry"/>
                </mxCell>
                <mxCell id="goD8COI7fvtztgVObVlK-6" value="prod_name" style="ellipse;whiteSpace=wrap;html=1;" vertex="1" parent="ca0Z7T8of8gmfiPiTYou-1">
                    <mxGeometry x="540" y="455" width="110" height="50" as="geometry"/>
                </mxCell>
                <mxCell id="goD8COI7fvtztgVObVlK-8" value="photo" style="ellipse;whiteSpace=wrap;html=1;" vertex="1" parent="ca0Z7T8of8gmfiPiTYou-1">
                    <mxGeometry x="814" y="330" width="110" height="50" as="geometry"/>
                </mxCell>
                <mxCell id="goD8COI7fvtztgVObVlK-9" value="description" style="ellipse;whiteSpace=wrap;html=1;" vertex="1" parent="ca0Z7T8of8gmfiPiTYou-1">
                    <mxGeometry x="560" y="380" width="110" height="50" as="geometry"/>
                </mxCell>
                <mxCell id="EaMDmju6QmwKnn0wwo6J-0" value="password" style="ellipse;whiteSpace=wrap;html=1;" vertex="1" parent="ca0Z7T8of8gmfiPiTYou-1">
                    <mxGeometry x="220" y="430" width="110" height="50" as="geometry"/>
                </mxCell>
                <mxCell id="EaMDmju6QmwKnn0wwo6J-1" value="name" style="ellipse;whiteSpace=wrap;html=1;" vertex="1" parent="ca0Z7T8of8gmfiPiTYou-1">
                    <mxGeometry x="210" y="505" width="110" height="50" as="geometry"/>
                </mxCell>
                <mxCell id="9DCI0XBkv5CSsvKXZWBZ-0" value="email" style="ellipse;whiteSpace=wrap;html=1;" vertex="1" parent="ca0Z7T8of8gmfiPiTYou-1">
                    <mxGeometry x="100" y="370" width="110" height="50" as="geometry"/>
                </mxCell>
                <mxCell id="jxNRX1WY2ZKDCiM9UZeG-25" style="edgeStyle=none;html=1;exitX=0.5;exitY=0;exitDx=0;exitDy=0;entryX=1;entryY=0.5;entryDx=0;entryDy=0;endArrow=ERmany;endFill=0;" edge="1" parent="ca0Z7T8of8gmfiPiTYou-1" source="jxNRX1WY2ZKDCiM9UZeG-20" target="ca0Z7T8of8gmfiPiTYou-4">
                    <mxGeometry relative="1" as="geometry"/>
                </mxCell>
                <mxCell id="jxNRX1WY2ZKDCiM9UZeG-20" value="contains of" style="rhombus;whiteSpace=wrap;html=1;" vertex="1" parent="ca0Z7T8of8gmfiPiTYou-1">
                    <mxGeometry x="520" y="210" width="110" height="80" as="geometry"/>
                </mxCell>
                <mxCell id="jxNRX1WY2ZKDCiM9UZeG-23" style="edgeStyle=none;html=1;exitX=1;exitY=0;exitDx=0;exitDy=0;entryX=0.5;entryY=1;entryDx=0;entryDy=0;endArrow=ERone;endFill=0;" edge="1" parent="ca0Z7T8of8gmfiPiTYou-1" source="jxNRX1WY2ZKDCiM9UZeG-21" target="ca0Z7T8of8gmfiPiTYou-4">
                    <mxGeometry relative="1" as="geometry"/>
                </mxCell>
                <mxCell id="jxNRX1WY2ZKDCiM9UZeG-21" value="bids on" style="rhombus;whiteSpace=wrap;html=1;" vertex="1" parent="ca0Z7T8of8gmfiPiTYou-1">
                    <mxGeometry x="280" y="300" width="110" height="80" as="geometry"/>
                </mxCell>
            </root>
        </mxGraphModel>
    </diagram>
    <diagram id="Linwul_X9PhLg9Zq-5qD" name="Page-3">
        <mxGraphModel dx="853" dy="846" grid="1" gridSize="10" guides="1" tooltips="1" connect="1" arrows="1" fold="1" page="1" pageScale="1" pageWidth="827" pageHeight="1169" math="0" shadow="0">
            <root>
                <mxCell id="x2I-QkCe3yrf8vu7usgW-0"/>
                <mxCell id="x2I-QkCe3yrf8vu7usgW-1" parent="x2I-QkCe3yrf8vu7usgW-0"/>
                <mxCell id="0KfHPQlNIQVeiRZ2WCsy-45" value="Customer" style="swimlane;fontStyle=0;childLayout=stackLayout;horizontal=1;startSize=26;fillColor=none;horizontalStack=0;resizeParent=1;resizeParentMax=0;resizeLast=0;collapsible=1;marginBottom=0;" vertex="1" parent="x2I-QkCe3yrf8vu7usgW-1">
                    <mxGeometry x="70" y="60" width="140" height="208" as="geometry"/>
                </mxCell>
                <mxCell id="0KfHPQlNIQVeiRZ2WCsy-46" value="+ customer_id: int" style="text;strokeColor=none;fillColor=none;align=left;verticalAlign=top;spacingLeft=4;spacingRight=4;overflow=hidden;rotatable=0;points=[[0,0.5],[1,0.5]];portConstraint=eastwest;" vertex="1" parent="0KfHPQlNIQVeiRZ2WCsy-45">
                    <mxGeometry y="26" width="140" height="26" as="geometry"/>
                </mxCell>
                <mxCell id="0KfHPQlNIQVeiRZ2WCsy-47" value="+ amount: int" style="text;strokeColor=none;fillColor=none;align=left;verticalAlign=top;spacingLeft=4;spacingRight=4;overflow=hidden;rotatable=0;points=[[0,0.5],[1,0.5]];portConstraint=eastwest;" vertex="1" parent="0KfHPQlNIQVeiRZ2WCsy-45">
                    <mxGeometry y="52" width="140" height="26" as="geometry"/>
                </mxCell>
                <mxCell id="0KfHPQlNIQVeiRZ2WCsy-48" value="+ date: string" style="text;strokeColor=none;fillColor=none;align=left;verticalAlign=top;spacingLeft=4;spacingRight=4;overflow=hidden;rotatable=0;points=[[0,0.5],[1,0.5]];portConstraint=eastwest;" vertex="1" parent="0KfHPQlNIQVeiRZ2WCsy-45">
                    <mxGeometry y="78" width="140" height="26" as="geometry"/>
                </mxCell>
                <mxCell id="0KfHPQlNIQVeiRZ2WCsy-59" value="+ time: string" style="text;strokeColor=none;fillColor=none;align=left;verticalAlign=top;spacingLeft=4;spacingRight=4;overflow=hidden;rotatable=0;points=[[0,0.5],[1,0.5]];portConstraint=eastwest;" vertex="1" parent="0KfHPQlNIQVeiRZ2WCsy-45">
                    <mxGeometry y="104" width="140" height="26" as="geometry"/>
                </mxCell>
                <mxCell id="0KfHPQlNIQVeiRZ2WCsy-61" value="+ password: string" style="text;strokeColor=none;fillColor=none;align=left;verticalAlign=top;spacingLeft=4;spacingRight=4;overflow=hidden;rotatable=0;points=[[0,0.5],[1,0.5]];portConstraint=eastwest;" vertex="1" parent="0KfHPQlNIQVeiRZ2WCsy-45">
                    <mxGeometry y="130" width="140" height="26" as="geometry"/>
                </mxCell>
                <mxCell id="0KfHPQlNIQVeiRZ2WCsy-62" value="+ name: string" style="text;strokeColor=none;fillColor=none;align=left;verticalAlign=top;spacingLeft=4;spacingRight=4;overflow=hidden;rotatable=0;points=[[0,0.5],[1,0.5]];portConstraint=eastwest;" vertex="1" parent="0KfHPQlNIQVeiRZ2WCsy-45">
                    <mxGeometry y="156" width="140" height="26" as="geometry"/>
                </mxCell>
                <mxCell id="0KfHPQlNIQVeiRZ2WCsy-63" value="+ email: string" style="text;strokeColor=none;fillColor=none;align=left;verticalAlign=top;spacingLeft=4;spacingRight=4;overflow=hidden;rotatable=0;points=[[0,0.5],[1,0.5]];portConstraint=eastwest;" vertex="1" parent="0KfHPQlNIQVeiRZ2WCsy-45">
                    <mxGeometry y="182" width="140" height="26" as="geometry"/>
                </mxCell>
                <mxCell id="0KfHPQlNIQVeiRZ2WCsy-49" value="set" style="swimlane;fontStyle=0;childLayout=stackLayout;horizontal=1;startSize=26;fillColor=none;horizontalStack=0;resizeParent=1;resizeParentMax=0;resizeLast=0;collapsible=1;marginBottom=0;" vertex="1" parent="x2I-QkCe3yrf8vu7usgW-1">
                    <mxGeometry x="290" y="60" width="140" height="208" as="geometry"/>
                </mxCell>
                <mxCell id="0KfHPQlNIQVeiRZ2WCsy-50" value="+ set_id: int" style="text;strokeColor=none;fillColor=none;align=left;verticalAlign=top;spacingLeft=4;spacingRight=4;overflow=hidden;rotatable=0;points=[[0,0.5],[1,0.5]];portConstraint=eastwest;" vertex="1" parent="0KfHPQlNIQVeiRZ2WCsy-49">
                    <mxGeometry y="26" width="140" height="26" as="geometry"/>
                </mxCell>
                <mxCell id="0KfHPQlNIQVeiRZ2WCsy-51" value="+ catalog_num: int" style="text;strokeColor=none;fillColor=none;align=left;verticalAlign=top;spacingLeft=4;spacingRight=4;overflow=hidden;rotatable=0;points=[[0,0.5],[1,0.5]];portConstraint=eastwest;" vertex="1" parent="0KfHPQlNIQVeiRZ2WCsy-49">
                    <mxGeometry y="52" width="140" height="26" as="geometry"/>
                </mxCell>
                <mxCell id="0KfHPQlNIQVeiRZ2WCsy-52" value="+ remaining_time: string" style="text;strokeColor=none;fillColor=none;align=left;verticalAlign=top;spacingLeft=4;spacingRight=4;overflow=hidden;rotatable=0;points=[[0,0.5],[1,0.5]];portConstraint=eastwest;" vertex="1" parent="0KfHPQlNIQVeiRZ2WCsy-49">
                    <mxGeometry y="78" width="140" height="26" as="geometry"/>
                </mxCell>
                <mxCell id="pXIqGa9fJOQyIcMU_3vJ-1" value="+ start_price: int" style="text;strokeColor=none;fillColor=none;align=left;verticalAlign=top;spacingLeft=4;spacingRight=4;overflow=hidden;rotatable=0;points=[[0,0.5],[1,0.5]];portConstraint=eastwest;" vertex="1" parent="0KfHPQlNIQVeiRZ2WCsy-49">
                    <mxGeometry y="104" width="140" height="26" as="geometry"/>
                </mxCell>
                <mxCell id="pXIqGa9fJOQyIcMU_3vJ-2" value="+ highest_bid: int" style="text;strokeColor=none;fillColor=none;align=left;verticalAlign=top;spacingLeft=4;spacingRight=4;overflow=hidden;rotatable=0;points=[[0,0.5],[1,0.5]];portConstraint=eastwest;" vertex="1" parent="0KfHPQlNIQVeiRZ2WCsy-49">
                    <mxGeometry y="130" width="140" height="26" as="geometry"/>
                </mxCell>
                <mxCell id="YJRdebl4kS1ILS5nnO39-0" value="+ fk_cost_id: int" style="text;strokeColor=none;fillColor=none;align=left;verticalAlign=top;spacingLeft=4;spacingRight=4;overflow=hidden;rotatable=0;points=[[0,0.5],[1,0.5]];portConstraint=eastwest;" vertex="1" parent="0KfHPQlNIQVeiRZ2WCsy-49">
                    <mxGeometry y="156" width="140" height="26" as="geometry"/>
                </mxCell>
                <mxCell id="YJRdebl4kS1ILS5nnO39-1" value="+ fk_prod_id: int" style="text;strokeColor=none;fillColor=none;align=left;verticalAlign=top;spacingLeft=4;spacingRight=4;overflow=hidden;rotatable=0;points=[[0,0.5],[1,0.5]];portConstraint=eastwest;" vertex="1" parent="0KfHPQlNIQVeiRZ2WCsy-49">
                    <mxGeometry y="182" width="140" height="26" as="geometry"/>
                </mxCell>
                <mxCell id="0KfHPQlNIQVeiRZ2WCsy-53" value="product" style="swimlane;fontStyle=0;childLayout=stackLayout;horizontal=1;startSize=26;fillColor=none;horizontalStack=0;resizeParent=1;resizeParentMax=0;resizeLast=0;collapsible=1;marginBottom=0;" vertex="1" parent="x2I-QkCe3yrf8vu7usgW-1">
                    <mxGeometry x="570" y="60" width="140" height="130" as="geometry"/>
                </mxCell>
                <mxCell id="0KfHPQlNIQVeiRZ2WCsy-54" value="+ prod_id: int" style="text;strokeColor=none;fillColor=none;align=left;verticalAlign=top;spacingLeft=4;spacingRight=4;overflow=hidden;rotatable=0;points=[[0,0.5],[1,0.5]];portConstraint=eastwest;" vertex="1" parent="0KfHPQlNIQVeiRZ2WCsy-53">
                    <mxGeometry y="26" width="140" height="26" as="geometry"/>
                </mxCell>
                <mxCell id="0KfHPQlNIQVeiRZ2WCsy-55" value="+ prod_name: string" style="text;strokeColor=none;fillColor=none;align=left;verticalAlign=top;spacingLeft=4;spacingRight=4;overflow=hidden;rotatable=0;points=[[0,0.5],[1,0.5]];portConstraint=eastwest;" vertex="1" parent="0KfHPQlNIQVeiRZ2WCsy-53">
                    <mxGeometry y="52" width="140" height="26" as="geometry"/>
                </mxCell>
                <mxCell id="0KfHPQlNIQVeiRZ2WCsy-56" value="+ description: string" style="text;strokeColor=none;fillColor=none;align=left;verticalAlign=top;spacingLeft=4;spacingRight=4;overflow=hidden;rotatable=0;points=[[0,0.5],[1,0.5]];portConstraint=eastwest;" vertex="1" parent="0KfHPQlNIQVeiRZ2WCsy-53">
                    <mxGeometry y="78" width="140" height="26" as="geometry"/>
                </mxCell>
                <mxCell id="pXIqGa9fJOQyIcMU_3vJ-6" value="+ photo: string" style="text;strokeColor=none;fillColor=none;align=left;verticalAlign=top;spacingLeft=4;spacingRight=4;overflow=hidden;rotatable=0;points=[[0,0.5],[1,0.5]];portConstraint=eastwest;" vertex="1" parent="0KfHPQlNIQVeiRZ2WCsy-53">
                    <mxGeometry y="104" width="140" height="26" as="geometry"/>
                </mxCell>
                <mxCell id="YJRdebl4kS1ILS5nnO39-2" style="edgeStyle=none;html=1;exitX=1;exitY=0.5;exitDx=0;exitDy=0;entryX=0;entryY=0.5;entryDx=0;entryDy=0;endArrow=ERone;endFill=0;" edge="1" parent="x2I-QkCe3yrf8vu7usgW-1" source="0KfHPQlNIQVeiRZ2WCsy-46" target="YJRdebl4kS1ILS5nnO39-0">
                    <mxGeometry relative="1" as="geometry">
                        <Array as="points">
                            <mxPoint x="240" y="99"/>
                            <mxPoint x="240" y="229"/>
                        </Array>
                    </mxGeometry>
                </mxCell>
                <mxCell id="YJRdebl4kS1ILS5nnO39-3" style="edgeStyle=none;html=1;exitX=1;exitY=0.5;exitDx=0;exitDy=0;entryX=0;entryY=0.5;entryDx=0;entryDy=0;endArrow=ERmany;endFill=0;" edge="1" parent="x2I-QkCe3yrf8vu7usgW-1" source="YJRdebl4kS1ILS5nnO39-1" target="0KfHPQlNIQVeiRZ2WCsy-54">
                    <mxGeometry relative="1" as="geometry">
                        <Array as="points">
                            <mxPoint x="520" y="255"/>
                            <mxPoint x="520" y="99"/>
                        </Array>
                    </mxGeometry>
                </mxCell>
            </root>
        </mxGraphModel>
    </diagram>
</mxfile>